/* XPM */
static char *_[] = {
/* columns rows colors chars-per-pixel */
"64 64 65 1",
"  c #030303",
". c #070708",
"X c #080708",
"o c #060809",
"O c #0B0B0C",
"+ c #100E0D",
"@ c #0F100F",
"# c #0F0E11",
"$ c #100F10",
"% c #0F1011",
"& c #131314",
"* c #191616",
"= c #161A16",
"- c #171619",
"; c #1A1719",
": c #171819",
"> c #1C1A1C",
", c #1E1D21",
"< c #201E21",
"1 c #232224",
"2 c #2A2626",
"3 c #2E2827",
"4 c #26262A",
"5 c #282729",
"6 c #2C2B2D",
"7 c #332D2F",
"8 c #31312F",
"9 c #2C2B31",
"0 c #322F31",
"q c #2F3033",
"w c #343334",
"e c #3B3433",
"r c #35353B",
"t c #39363A",
"y c #36383D",
"u c #3A3A3D",
"i c #423B3C",
"p c #3C3C41",
"a c #413D41",
"s c #3F4046",
"d c #434243",
"f c #4B4242",
"g c #464549",
"h c #4C4A4C",
"j c #514F4F",
"k c #4D4D53",
"l c #4B4E5B",
"z c #4F5157",
"x c #515057",
"c c #53545A",
"v c #5F5B5B",
"b c #625C5B",
"n c #5A5560",
"m c #565864",
"M c #5C5B65",
"N c #5D5E6A",
"B c #676467",
"V c #6D6A6D",
"C c #6D6B72",
"Z c #706D72",
"A c #797679",
"S c #7F7F7F",
"D c #980088",
"F c #A3A4A3",
"G c #E7E7E7",
/* pixels */
"DDDDDDDDDDDDDDDDDDDDDDDDDDDDDDDDDDDDDDDDDDDDDDDDDDDDDDDDDDDDDDDD",
"DDDDDDDDDDDDDDDDDDDDDDDDDDDDDDDDDDDDDDDDDDDDDDDDDDDDDDDDDDDDDDDD",
"DDDDDDDDDDDDDDDDDDDDDDDDDDDDDDDDDDDDDDDDDDDDDDDDDDDDDDDDDDDDDDDD",
"DDDDDDDDDDDDDDDDDDDDDDDDDDDDDDDDDDDDDDDDDDDDDDDDDDDDDDDDDDDDDDDD",
"DDDDDDDDDDDDDDDDDDDDDDDDDDDDDDDDDDDDDDDDDDDDDDDDDDDDDDDDDDDDDDDD",
"DDDDDDDDDDDDDDDDDDDDDDDDDDDDDDDDDDDDDDDDDDDDDDDDDDDDDDDDDDDDDDDD",
"DDDDDDDDDDDDDDDDDDDDDDDDDDDDDDDDDDDDDDDDDDDDDDDDDDDDDDDDDDDDDDDD",
"DDDDDDDDDDDDDDDDDDDDDDDDDDDDDDDDDDDDDDDDDDDDDDDDDDDDDDDDDDDDDDDD",
"DDDDDDDDDDDDDDDDDDDDDDDDDDDDDDDDDDDDDDDDDDDDDDDDDDDDDDDDDDDDDDDD",
"DDDDDDDDDDDDDDDDDDDDDDDDDDDDDDDDDDDDDDDDDDDDDDDDDDDDDDDDDDDDDDDD",
"DDDDDDDDDDDDDDDDDDDDDDDDDDDDDDDDDDDDDDDDDDDDDDDDDDDDDDDDDDDDDDDD",
"DDDDDDDDDDDDDDDDDDDDDDDDDDDDDDDDDDDDDDDDDDDDDDDDDDDDDDDDDDDDDDDD",
"DDDDDDDDDDDDDDDDDDDDDDDDDDDDDDDDDDDDDDDDDDDDDDDDDDDDDDDDDDDDDDDD",
"DDDDDDDDDDDDDDDDDDDDDDDDDDDDDDDDDDDDDDDDDDDDDDDDDDDDDDDDDDDDDDDD",
"DDDDDDDDDDDDDDDDDDDDDDDDDDDDDDDDDDDDDDDDDDDDDDDDDDDDDDDDDDDDDDDD",
"DDDDDDDDDDDDDDDDDDDDDDDDDDDDDDDDDDDDDDDDDDDDDDDDDDDDDDDDDDDDDDDD",
"DDDDDDDDDDDDDDDDDDDDDDDDDDDDDDDDDDDDDDDDDDDDDDDDDDDDDDDDDDDDDDDD",
"DDDDDDDDDDDDDDDDDDDDDDDDDDDDDDDDDDDDDDDDDDDDDDDDDDDDDDDDDDDDDDDD",
"DDDDDDDDDDDDDDDDDDDDDDDDDDDDDDDDDDDDDDDDDDDDDDDDDDDDDDDDDDDDDDDD",
"DDDDDDDDDDDDDDDDDDDDDDDDDDDDDDDDDDDDDDDDDDDDDDDDDDDDDDDDDDDDDDDD",
"DDDDDDDDDDDDDDDDDDDDDDDDDDDDDDDDDDDDDDDDDDDDDDDDDDDDDDDDDDDDDDDD",
"DDDDDDDDDDDDDDDDDDDDDDDDDDDDDDDDDDDDDDDDDDDDDDDDDDDDDDDDDDDDDDDD",
"DDDDDDDDDDDDDDDDDDDDDDDDDDDDDDDDDDDDDDDDDDDDDDDDDDDDDDDDDDDDDDDD",
"DDDDDDDDDDDDDDDDDDDDDDDDDDDDDDDDDDDDDDDDDDDDDDDDDDDDDDDDDDDDDDDD",
"DDDDDDDDDDDDDDDDDDDDDDDDDDDDDDDDDDDDDDDDDDDDDDDDDDDDDDDDDDDDDDDD",
"DDDDDDDDDDDDDDDDDDDDDDDDDDDDDDDDDDDDDDDDDDDDDDDDDDDDDDDDDDDDDDDD",
"DDDDDDDDDDDDDDDDDDDDDDDDDDDDDDDDDDDDDDDDDDDDDDDDDDDDDDDDDDDDDDDD",
"DDDDDDDDDDDDDDDDDDDDDDDDDDDDDDDDDDDDDDDDDDDDDDDDDDDDDDDDDDDDDDDD",
"DDDDDDDDDDDDDDDDDDDDDDDDDDDDDDDDDDDDDDDDDDDDDDDDDDDDDDDDDDDDDDDD",
"DDDDDDDDDDDDDDDDDDDDDDDDDDDDDDDDD1DDDDDDDDDDDDDDDDDDDDDDDDDDDDDD",
"DDDDDDDDDDDDDDDDDDDDDDDDDDDDDDDDD=DDDDDDDDDDDDDDDDDDDDDDDDDDDDDD",
"DDDDDDDDDDDDDDDDDDDDDDDDDDDDDDDD7= DDDDDDDDDDDDDDDDDDDDDDDDDDDDD",
"DDDDDDDDDDDDDDDDDDDDDDDDDDDDDDD*O1&;&DDDDDDDDDDDDDDDDDDDDDDDDDDD",
"DDDDDDDDDDDDDDDDDDDDDDDDDDDDDDD>& &&%$DDDDDDDDDDDDDDDDDDDDDDDDDD",
"DDDDDDDDDDDDDDDDDDDDDDDDDDDDDDD<-O &O  DDDDDDDDDDDDDDDDDDDDDDDDD",
"DDDDDDDDDDDDDDDDDDDDDDDDDDDDDDD>&#oO   > DDDDDDDDDDDDDDDDDDDDDDD",
"DDDDDDDDDDDDDDDDDDDDDDDDDDDDDDw>&$OO rOOO&:DXDDDDDDDDDDDDDDDDDDD",
"DDDDDDDDDDDDDDDDDDDDDDDDDDDDDDw@#OO- 11&%O. X. .O   DDDDDDDDDDDD",
"DDDDDDDDDDDDDDDDDDDDDDDDDDDDDD>&>$ q;12->    XGt6XOSa DDDDDDDDDD",
"DDDDDDDDDDDDDDDDDDDDDDDDDDDDDDD&1d r1<2; O   &GV1O FV DDDDDDDDDD",
"DDDDDDDDDDDDDDDDDDDDDDDDDDDDDDDOujOX412>X;O X1.*   . XDDDDDDDDDD",
"DDDDDDDDDDDDDDDDDDDDDDDDDDDDDDD@>hpO&<6>X+O&O71=O    =DDDDDDDDDD",
"DDDDDDDDDDDDDDDDDDDDDDDDDDDDDDDD&pu6X46:XOOO &*;3w3X.tDDDDDDDDDD",
"DDDDDDDDDDDDDDDDDDDDDDDDDDDDDDDDD>r6 >t- OXOO+&&;w>>>>DDDDDDDDDD",
"DDDDDDDDDDDDDDDDDDDDDDDDDDDDDDDDD:;9,9&&X1:O &**;35>>>DDDDDDDDDD",
"DDDDDDDDDDDDDDDDDDDDDDDDDDDDDDDDDD-6,6>  1,o&>>:>2511>>DDDDDDDDD",
"DDDDDDDDDDDDDDDDDDDDDDDDDDDDDDDDDD&-4-&O ,,O1>>>>15611,DDDDDDDDD",
"DDDDDDDDDDDDDDDDDDDDDDDDDDDDDDDDDDD#4O#X O> O#>,1<6w655,DDDDDDDD",
"DDDDDDDDDDDDDDDDDDDDDDDDDDDDDDDDDDD@&OO. &1  #8eeighd0r4DDDDDDDD",
"DDDDDDDDDDDDDDDDDDDDDDDDDDDDDDDDDDDO&.:1 #>O &6ew    NlxMDDDDDDD",
"DDDDDDDDDDDDDDDDDDDDDDDDDDDDDDDDDDD&--.&OO XO#w  &>& XXcNDDDDDDD",
"DDDDDDDDDDDDDDDDDDDDDDDDDDDDDDDDDDDO.4 O;- XX#7  1OOoXokmDDDDDDD",
"DDDDDDDDDDDDDDDDDDDDDDDDDDDDDDDDDDD+O& O:&XO.#0O  :qOookvDDDDDDD",
"DDDDDDDDDDDDDDDDDDDDDDDDDDDDDDDDDDD  O .&O#1o#wOOOO6<OokcDDDDDDD",
"DDDDDDDDDDDDDDDDDDDDDDDDDDDDDDDDDDDO9o.O#OO9#&tOOO&16OOcxDDDDDDD",
"DDDDDDDDDDDDDDDDDDDDDDDDDDDDDDDDDDD#9OO O.#<&&pupX&#,0dhkDDDDDDD",
"DDDDDDDDDDDDDDDDDDDDDDDDDDDDDDDDDDD&4&O>OO&11%ytpO&&50hAkDDDDDDD",
"DDDDDDDDDDDDDDDDDDDDDDDDDDDDDDDD:4>&9&O &&1%>&rtw#&>><gVgDDDDDDD",
"DDDDDDDDDDDDDDDDDDDDDDDDDDDDD87,4C1,t&  OO4O,&rrtO&;<rhddDDDDDDD",
"DDDDDDDDDDDDDDDDDDDDDDDDDDDDD6f65pOa6O OO@OOO&yttO$46upppDDDDDDD",
"DDDDDDDDDDDDDDDDDDDDDDDDDDDDD6f88wOOO%O@@O@.%&rru&$;gbuppDDDDDDD",
"DDDDDDDDDDDDDDDDDDDDDDDDDDDDDD>5&OOO>-%&&%%@-%ryy&&phbpypDDDDDDD",
"DDDDDDDDDDDDDDDDDDDDDDDDDDDDDO:# OO@@O&&&&%&-%ryryrajtprpDDDDDDD",
"DDDDDDDDDDDDDDDDDDDDDDDDDDDDO  >ZO%@@&&&&&=&&-rrrrpgBrrrrDDDDDDD"
};
