/* XPM */
static char *_[] = {
/* columns rows colors chars-per-pixel */
"64 64 63 1",
"  c #030303",
". c #070708",
"X c #080708",
"o c #060809",
"O c #0B0B0C",
"+ c #100E0D",
"@ c #0F100F",
"# c #0F0E11",
"$ c #100F10",
"% c #131314",
"& c #191616",
"* c #161A16",
"= c #171619",
"- c #1A1719",
"; c #171819",
": c #1C1A1C",
"> c #1E1D21",
", c #201E21",
"< c #232224",
"1 c #2A2626",
"2 c #2E2827",
"3 c #26262A",
"4 c #282729",
"5 c #2C2B2D",
"6 c #332D2F",
"7 c #31312F",
"8 c #2C2B31",
"9 c #322F31",
"0 c #2F3033",
"q c #343334",
"w c #3B3433",
"e c #35353B",
"r c #39363A",
"t c #36383E",
"y c #3A3A3D",
"u c #423B3C",
"i c #3C3C41",
"p c #413D41",
"a c #3F4046",
"s c #434243",
"d c #4B4242",
"f c #47464A",
"g c #4C4A4C",
"h c #514F4F",
"j c #4D4D53",
"k c #4B4E5B",
"l c #4F5157",
"z c #515057",
"x c #53545A",
"c c #5F5B5B",
"v c #625C5B",
"b c #5A5560",
"n c #565864",
"m c #5C5B65",
"M c #5D5E6A",
"N c #6D6A6D",
"B c #6D6B72",
"V c #706A70",
"C c #797679",
"Z c #7F7F7F",
"A c #980088",
"S c #A3A4A3",
"D c #E7E7E7",
/* pixels */
"AAAAAAAAAAAAAAAAAAAAAAAAAAAAAAAAAAAAAAAAAAAAAAAAAAAAAAAAAAAAAAAA",
"AAAAAAAAAAAAAAAAAAAAAAAAAAAAAAAAAAAAAAAAAAAAAAAAAAAAAAAAAAAAAAAA",
"AAAAAAAAAAAAAAAAAAAAAAAAAAAAAAAAAAAAAAAAAAAAAAAAAAAAAAAAAAAAAAAA",
"AAAAAAAAAAAAAAAAAAAAAAAAAAAAAAAAAAAAAAAAAAAAAAAAAAAAAAAAAAAAAAAA",
"AAAAAAAAAAAAAAAAAAAAAAAAAAAAAAAAAAAAAAAAAAAAAAAAAAAAAAAAAAAAAAAA",
"AAAAAAAAAAAAAAAAAAAAAAAAAAAAAAAAAAAAAAAAAAAAAAAAAAAAAAAAAAAAAAAA",
"AAAAAAAAAAAAAAAAAAAAAAAAAAAAAAAAAAAAAAAAAAAAAAAAAAAAAAAAAAAAAAAA",
"AAAAAAAAAAAAAAAAAAAAAAAAAAAAAAAAAAAAAAAAAAAAAAAAAAAAAAAAAAAAAAAA",
"AAAAAAAAAAAAAAAAAAAAAAAAAAAAAAAAAAAAAAAAAAAAAAAAAAAAAAAAAAAAAAAA",
"AAAAAAAAAAAAAAAAAAAAAAAAAAAAAAAAAAAAAAAAAAAAAAAAAAAAAAAAAAAAAAAA",
"AAAAAAAAAAAAAAAAAAAAAAAAAAAAAAAAAAAAAAAAAAAAAAAAAAAAAAAAAAAAAAAA",
"AAAAAAAAAAAAAAAAAAAAAAAAAAAAAAAAAAAAAAAAAAAAAAAAAAAAAAAAAAAAAAAA",
"AAAAAAAAAAAAAAAAAAAAAAAAAAAAAAAAAAAAAAAAAAAAAAAAAAAAAAAAAAAAAAAA",
"AAAAAAAAAAAAAAAAAAAAAAAAAAAAAAAAAAAAAAAAAAAAAAAAAAAAAAAAAAAAAAAA",
"AAAAAAAAAAAAAAAAAAAAAAAAAAAAAAAAAAAAAAAAAAAAAAAAAAAAAAAAAAAAAAAA",
"AAAAAAAAAAAAAAAAAAAAAAAAAAAAAAAAAAAAAAAAAAAAAAAAAAAAAAAAAAAAAAAA",
"AAAAAAAAAAAAAAAAAAAAAAAAAAAAAAAAAAAAAAAAAAAAAAAAAAAAAAAAAAAAAAAA",
"AAAAAAAAAAAAAAAAAAAAAAAAAAAAAAAAAAAAAAAAAAAAAAAAAAAAAAAAAAAAAAAA",
"AAAAAAAAAAAAAAAAAAAAAAAAAAAAAAAAAAAAAAAAAAAAAAAAAAAAAAAAAAAAAAAA",
"AAAAAAAAAAAAAAAAAAAAAAAAAAAAAAAAAAAAAAAAAAAAAAAAAAAAAAAAAAAAAAAA",
"AAAAAAAAAAAAAAAAAAAAAAAAAAAAAAAAAAAAAAAAAAAAAAAAAAAAAAAAAAAAAAAA",
"AAAAAAAAAAAAAAAAAAAAAAAAAAAAAAAAAAAAAAAAAAAAAAAAAAAAAAAAAAAAAAAA",
"AAAAAAAAAAAAAAAAAAAAAAAAAAAAAAAAAAAAAAAAAAAAAAAAAAAAAAAAAAAAAAAA",
"AAAAAAAAAAAAAAAAAAAAAAAAAAAAAAAAAAAAAAAAAAAAAAAAAAAAAAAAAAAAAAAA",
"AAAAAAAAAAAAAAAAAAAAAAAAAAAAAAAAAAAAAAAAAAAAAAAAAAAAAAAAAAAAAAAA",
"AAAAAAAAAAAAAAAAAAAAAAAAAAAAAAAAAAAAAAAAAAAAAAAAAAAAAAAAAAAAAAAA",
"AAAAAAAAAAAAAAAAAAAAAAAAAAAAAAAAAAAAAAAAAAAAAAAAAAAAAAAAAAAAAAAA",
"AAAAAAAAAAAAAAAAAAAAAAAAAAAAAAAAAAAAAAAAAAAAAAAAAAAAAAAAAAAAAAAA",
"AAAAAAAAAAAAAAAAAAAAAAAAAAAAAAAAAAAAAAAAAAAAAAAAAAAAAAAAAAAAAAAA",
"AAAAAAAAAAAAAAAAAAAAAAAAAAAAAAAAAAAAAAAAAAAAAAAAAAAAAAAAAAAAAAAA",
"AAAAAAAAAAAAAAAAAAAAAAAAAAAAAAAAA3AAAAAAAAAAAAAAAAAAAAAAAAAAAAAA",
"AAAAAAAAAAAAAAAAAAAAAAAAAAAAAAAAA*AAAAAAAAAAAAAAAAAAAAAAAAAAAAAA",
"AAAAAAAAAAAAAAAAAAAAAAAAAAAAAAAA5& AAAAAAAAAAAAAAAAAAAAAAAAAAAAA",
"AAAAAAAAAAAAAAAAAAAAAAAAAAAAAAA&X3&=&AAAAAAAAAAAAAAAAAAAAAAAAAAA",
"AAAAAAAAAAAAAAAAAAAAAAAAAAAAAAA:% %%@#AAAAAAAAAAAAAAAAAAAAAAAAAA",
"AAAAAAAAAAAAAAAAAAAAAAAAAAAAAAA<&O %O  AAAAAAAAAAAAAAAAAAAAAAAAA",
"AAAAAAAAAAAAAAAAAAAAAAAAAAAAAAA&%#oO   ; AAAAAAAAAAAAAAAAAAAAAAA",
"AAAAAAAAAAAAAAAAAAAAAAAAAAAAAAr;%$XO eOXO&%AOAAAAAAAAAAAAAAAAAAA",
"AAAAAAAAAAAAAAAAAAAAAAAAAAAAAArO$#O= ,3%%X. .   O   AAAAAAAAAAAA",
"AAAAAAAAAAAAAAAAAAAAAAAAAAAAAA%&:# 0&<1-;    XDr8XXZs AAAAAAAAAA",
"AAAAAAAAAAAAAAAAAAAAAAAAAAAAAAA&3s r<<4- %   %DV3  SV AAAAAAAAAA",
"AAAAAAAAAAAAAAAAAAAAAAAAAAAAAAAOyhO <<1;X;O .< -     XAAAAAAAAAA",
"AAAAAAAAAAAAAAAAAAAAAAAAAAAAAAA#:fy%=<5:O+X%O6<&OX   *AAAAAAAAAA",
"AAAAAAAAAAAAAAAAAAAAAAAAAAAAAAAA&ir5X32;XOXO %&-2w5XXyAAAAAAAAAA",
"AAAAAAAAAAAAAAAAAAAAAAAAAAAAAAAAA:e3 >r&XXoOO%%%;q:---AAAAAAAAAA",
"AAAAAAAAAAAAAAAAAAAAAAAAAAAAAAAAA;=8>8%% 3:X %&&-21,:;AAAAAAAAAA",
"AAAAAAAAAAAAAAAAAAAAAAAAAAAAAAAAAA=5>5>  <>o&:;;&15,,:*AAAAAAAAA",
"AAAAAAAAAAAAAAAAAAAAAAAAAAAAAAAAAA%=3;=X >:o<:;::<45<<:AAAAAAAAA",
"AAAAAAAAAAAAAAAAAAAAAAAAAAAAAAAAAAA#3.OX O> O#>:<<8q654,AAAAAAAA",
"AAAAAAAAAAAAAAAAAAAAAAAAAAAAAAAAAAA#&O@X %< .@7wwufgsqq3AAAAAAAA",
"AAAAAAAAAAAAAAAAAAAAAAAAAAAAAAAAAAAO%.;< $:O %6wq   .MklmAAAAAAA",
"AAAAAAAAAAAAAAAAAAAAAAAAAAAAAAAAAAA#%&X%OO XXOq  %:%  oxmAAAAAAA",
"AAAAAAAAAAAAAAAAAAAAAAAAAAAAAAAAAAA@X3.O:= oX#9X :OOXXXznAAAAAAA",
"AAAAAAAAAAAAAAAAAAAAAAAAAAAAAAAAAAA#X% X-%XOo#qX X;0OXXkbAAAAAAA",
"AAAAAAAAAAAAAAAAAAAAAAAAAAAAAAAAAAA  O o%OO< %rXXOO8<X jxAAAAAAA",
"AAAAAAAAAAAAAAAAAAAAAAAAAAAAAAAAAAAO8oXOOOO8O%tOOO%<5OOxzAAAAAAA",
"AAAAAAAAAAAAAAAAAAAAAAAAAAAAAAAAAAA#5OO OO@<*#iriX%#,9sgjAAAAAAA",
"AAAAAAAAAAAAAAAAAAAAAAAAAAAAAAAAAAA%3%O>OO%><%trio%%3qgCjAAAAAAA",
"AAAAAAAAAAAAAAAAAAAAAAAAAAAAAAAA;3:&8#O %%,%:%erqO%::,sNfAAAAAAA",
"AAAAAAAAAAAAAAAAAAAAAAAAAAAAA75,3B<:r#  OO3O>#eer#&->egssAAAAAAA",
"AAAAAAAAAAAAAAAAAAAAAAAAAAAAA5d55iOs8# OO@OO#%etyO%35rpiiAAAAAAA",
"AAAAAAAAAAAAAAAAAAAAAAAAAAAAA7d757OOO##O@O@o%%ete%%&fciiiAAAAAAA",
"AAAAAAAAAAAAAAAAAAAAAAAAAAAAAA>1%OO#:&%%%%##%%eet%%ygvieiAAAAAAA",
"AAAAAAAAAAAAAAAAAAAAAAAAAAAAAO*O.OO#O@%@%%%%%%eteyepjeiitAAAAAAA"
};
