/* XPM */
static char *_[] = {
/* columns rows colors chars-per-pixel */
"64 64 73 1",
"  c #030303",
". c #070708",
"X c #080708",
"o c #060809",
"O c #0B0B0C",
"+ c #100E0D",
"@ c #0F100F",
"# c #0F0E11",
"$ c #100F10",
"% c #131314",
"& c #191616",
"* c #161A16",
"= c #171619",
"- c #1A1719",
"; c #171819",
": c #1C1A1C",
"> c #1E1D21",
", c #201E21",
"< c #232224",
"1 c #2A2626",
"2 c #2E2827",
"3 c #26262A",
"4 c #282729",
"5 c #2C2B2D",
"6 c #332D2F",
"7 c #31312F",
"8 c #2C2B31",
"9 c #322F31",
"0 c #2F3033",
"q c #343334",
"w c #3B3433",
"e c #35353B",
"r c #39363A",
"t c #36383E",
"y c #3A3A3D",
"u c #441D0E",
"i c #621405",
"p c #423B3C",
"a c #3C3C41",
"s c #413D41",
"d c #3F4046",
"f c #434243",
"g c #4B4242",
"h c #47464A",
"j c #4C4A4C",
"k c #514F4F",
"l c #4D4D53",
"z c #4B4E5B",
"x c #4F5157",
"c c #515057",
"v c #53545A",
"b c #5F5B5B",
"n c #625C5B",
"m c #5A5560",
"M c #565864",
"N c #5C5B65",
"B c #5D5E6A",
"V c #6D6A6D",
"C c #6D6B72",
"Z c #706A70",
"A c #797679",
"S c #7F7F7F",
"D c #84230E",
"F c #A6371C",
"G c #C8522D",
"H c #E6723E",
"J c #F79356",
"K c #FFBB6D",
"L c #980088",
"P c #A3A4A3",
"I c #FFDE89",
"U c #FFFBA5",
"Y c #E7E7E7",
/* pixels */
"LLLLLLLLLLLLLLLLLLLLLLLLLLLLLLLLLLLLLLLLLLLLLLLLLLLLLLLLLLLLLLLL",
"LLLLLLLLLLLLLLLLLLLLLLLLLLLLLLLLLLLLLLLLLLLLLLLLLLLLLLLLLLLLLLLL",
"LLLLLLLLLLLLLLLLLLLLLLLLLLLLLLLLLLLLLLLLLLLLLLLLLLLLLLLLLLLLLLLL",
"LLLLLLLLLLLLLLLLLLLLLLLLLLLLLLLLLLLLLLLLLLLLLLLLLLLLLLLLLLLLLLLL",
"LLLLLLLLLLLLLLLLLLLLLLLLLLLLLLLLLLLLLLLLLLLLLLLLLLLLLLLLLLLLLLLL",
"LLLLLLLLLLLLLLLLLLLLLLLLLLLLLLLLLLLLLLLLLLLLLLLLLLLLLLLLLLLLLLLL",
"LLLLLLLLLLLLLLLLLLLLLLLLLLLLLLLLLLLLLLLLLLLLLLLLLLLLLLLLLLLLLLLL",
"LLLLLLLLLLLLLLLLLLLLLLLLLLLLLLLLLLLLLLLLLLLLLLLLLLLLLLLLLLLLLLLL",
"LLLLLLLLLLLLLLLLLLLLLLLLLLLLLLLLLLLLLLLLLLLLLLLLLLLLLLLLLLLLLLLL",
"LLLLLLLLLLLLLLLLLLLLLLLLLLLLLLLLLLLLLLLLLLLLLLLLLLLLLLLLLLLLLLLL",
"LLLLLLLLLLLLLLLLLLLLLLLLLLLLLLLLLLLLLLLLLLLLLLLLLLLLLLLLLLLLLLLL",
"LLLLLLLLLLLLLLLLLLLLLLLLLLLLLLLLLLLLLLLLLLLLLLLLLLLLLLLLLLLLLLLL",
"LLLLLLLLLLLLLLLLLLLLLLLLLLLLLLLLLLLLLLLLLLLLLLLLLLLLLLLLLLLLLLLL",
"LLLLLLLLLLLLLLLLLLLLLLLLLLLLLLLLLLLLLLLLLLLLLLLLLLLLLLLLLLLLLLLL",
"LLLLLLLLLLLLLLLLLLLLLLLLLLLLLLLLLLLLLLLLLLLLLLLLLLLLLLLLLLLLLLLL",
"LLLLLLLLLLLLLLLLLLLLLLLLLLLLLLLLLLLLLLLLLLLLLLLLLLLLLLLLLLLLLLLL",
"LLLLLLLLLLLLLLLLLLLLLLLLLLLLLLLLLLLLLLLLLLLLLLLLLLLLLLLLLLLLLLLL",
"LLLLLLLLLLLLLLLLLLLLLLLLLLLLLLLLLLLLLLLLLLLLLLLLLLLLLLLLLLLLLLLL",
"LLLLLLLLLLLLLLLLLLLLLLLLLLLLLLLLLLLLLLLLLLLLLLLLLLLLLLLLLLLLLLLL",
"LLLLLLLLLLLLLLLLLLLLLLLLLLLLLLLLLLLLLLLLLLLLLLLLLLLLLLLLLLLLLLLL",
"LLLLLLLLLLLLLLLLLLLLLLLLLLLLLLLLLLLLLLLLLLLLLLLLLLLLLLLLLLLLLLLL",
"LLLLLLLLLLLLLLLLLLLLLLLLLLLLLLLLLLLLLLLLLLLLLLLLLLLLLLLLLLLLLLLL",
"LLLLLLLLLLLLLLLLLLLLLLLLLLLLLLLLLLLLLLLLLLLLLLLLLLLLLLLLLLLLLLLL",
"LLLLLLLLLLLLLLLLLLLLLLLLLLLLLLLLuuLLLLLLLLLLLLLLLLLLLLLLLLLLLLLL",
"LLLLLLLLLLLLLLLLLLLLLLLLLLLLuDiDDFIuLLLLLLLLLLLLLLLLLLLLLLLLLLLL",
"LLLLLLLLLLLLLLLLLLLLLLLLLLiDGGHGKUUGuLLLLLLLLLLLLLLLLLLLLLLLLLLL",
"LLLLLLLLLLLLLLLLLLLLLLLLLDHIUUUUUUUIiLLLLLLLLLLLLLLLLLLLLLLLLLLL",
"LLLLLLLLLLLLLLLLLLLLLLLLDHUUUUUUUUUUDuLLLLLLLLLLLLLLLLLLLLLLLLLL",
"LLLLLLLLLLLLLLLLLLLLLLLLDIUUUUUUUUUUHiLLLLLLLLLLLLLLLLLLLLLLLLLL",
"LLLLLLLLLLLLLLLLLLLLLLLLGUUUUUUUUUUUIiLLLLLLLLLLLLLLLLLLLLLLLLLL",
"LLLLLLLLLLLLLLLLLLLLLLLuIUUUUUUUU3UUUFuLLLLLLLLLLLLLLLLLLLLLLLLL",
"LLLLLLLLLLLLLLLLLLLLLLLuGUUUUUUUU*UUUFiLLLLLLLLLLLLLLLLLLLLLLLLL",
"LLLLLLLLLLLLLLLLLLLLLLLLDUUUUUUU5& UUFuLLLLLLLLLLLLLLLLLLLLLLLLL",
"LLLLLLLLLLLLLLLLLLLLLLLLDKUUUUU&X3&=%DiLLLLLLLLLLLLLLLLLLLLLLLLL",
"LLLLLLLLLLLLLLLLLLLLLLLLiIUUUUU:% %%##uLLLLLLLLLLLLLLLLLLLLLLLLL",
"LLLLLLLLLLLLLLLLLLLLLLLLuUUUUUU,&O %O  LLLLLLLLLLLLLLLLLLLLLLLLL",
"LLLLLLLLLLLLLLLLLLLLLLLLuKUUUUU:%#oO.  ; LLLLLLLLLLLLLLLLLLLLLLL",
"LLLLLLLLLLLLLLLLLLLLLLLLLiHUUUq:%$XO eOX#&%LOLLLLLLLLLLLLLLLLLLL",
"LLLLLLLLLLLLLLLLLLLLLLLLLLDFHUqO$#O= ,3%OO. X   O   LLLLLLLLLLLL",
"LLLLLLLLLLLLLLLLLLLLLLLLLLLiDJ&%:# 9&<1;:    XYr5XXSf LLLLLLLLLL",
"LLLLLLLLLLLLLLLLLLLLLLLLLLLLuFi&1f e<,4& @   %YZ3. PV LLLLLLLLLL",
"LLLLLLLLLLLLLLLLLLLLLLLLLLLLLuuOykX.3<1:X:O X<.&     XLLLLLLLLLL",
"LLLLLLLLLLLLLLLLLLLLLLLLLLLLLLL%:ha$&>5:X+X%O5<&O    :LLLLLLLLLL",
"LLLLLLLLLLLLLLLLLLLLLLLLLLLLLLLL&ay5X44:XOXO %&&2w5X.rLLLLLLLLLL",
"LLLLLLLLLLLLLLLLLLLLLLLLLLLLLLLLL:e3 >r&XXoOO%%%:7::;:LLLLLLLLLL",
"LLLLLLLLLLLLLLLLLLLLLLLLLLLLLLLLL=:8>8%%.4:O %&&&52:::LLLLLLLLLL",
"LLLLLLLLLLLLLLLLLLLLLLLLLLLLLLLLLL=3>8>  ,>o%::;:15,::*LLLLLLLLL",
"LLLLLLLLLLLLLLLLLLLLLLLLLLLLLLLLLL&%3;=X >:o<:;::<54<<>LLLLLLLLL",
"LLLLLLLLLLLLLLLLLLLLLLLLLLLLLLLLLLL#4oOX.O: OO::,<8q544,LLLLLLLL",
"LLLLLLLLLLLLLLLLLLLLLLLLLLLLLLLLLLL#&OOO.%,..%qwwphjh9e4LLLLLLLL",
"LLLLLLLLLLLLLLLLLLLLLLLLLLLLLLLLLLLO%.;, O,X.O6wq    BzlNLLLLLLL",
"LLLLLLLLLLLLLLLLLLLLLLLLLLLLLLLLLLL@%=.%OO XX#q  $:%..OvNLLLLLLL",
"LLLLLLLLLLLLLLLLLLLLLLLLLLLLLLLLLLL@.3.O:& oX#9X :OOoXolMLLLLLLL",
"LLLLLLLLLLLLLLLLLLLLLLLLLLLLLLLLLLL#X% X=%XOo#9X X;qOX.lmLLLLLLL",
"LLLLLLLLLLLLLLLLLLLLLLLLLLLLLLLLLLL  O.o#OO<.#qOXOO8>O.lvLLLLLLL",
"LLLLLLLLLLLLLLLLLLLLLLLLLLLLLLLLLLLO5..O#OO8#$aOOO%<5OOvcLLLLLLL",
"LLLLLLLLLLLLLLLLLLLLLLLLLLLLLLLLLLL#5OO OO@<*#traX%#>9sjlLLLLLLL",
"LLLLLLLLLLLLLLLLLLLLLLLLLLLLLLLLLLL%3%O>OO%><%araX%%4qjAlLLLLLLL",
"LLLLLLLLLLLLLLLLLLLLLLLLLLLLLLLL:3:%8#O %%<%;%eqqO%::,hVhLLLLLLL",
"LLLLLLLLLLLLLLLLLLLLLLLLLLLLL55<3C<:t#  OO3O>%teyO&=>ejffLLLLLLL",
"LLLLLLLLLLLLLLLLLLLLLLLLLLLLL5g54aOf5$ OOOOOO$ttyO$45rsaaLLLLLLL",
"LLLLLLLLLLLLLLLLLLLLLLLLLLLLL7g777OOO$$O@O$X%%ttt%$:hbaaaLLLLLLL",
"LLLLLLLLLLLLLLLLLLLLLLLLLLLLLL>4&OOO:=%$@%%#=%eet%%pjnataLLLLLLL",
"LLLLLLLLLLLLLLLLLLLLLLLLLLLLLO;O OO%OO%%%%%%%%eeettslrattLLLLLLL"
};
